<?xml version="1.0" encoding="UTF-8" standalone="no"?><svg xmlns="http://www.w3.org/2000/svg" xmlns:xlink="http://www.w3.org/1999/xlink" contentScriptType="application/ecmascript" contentStyleType="text/css" height="782px" preserveAspectRatio="none" style="width:756px;height:782px;" version="1.1" viewBox="0 0 756 782" width="756px" zoomAndPan="magnify"><defs><filter height="300%" id="f1imkhayymdy08" width="300%" x="-1" y="-1"><feGaussianBlur result="blurOut" stdDeviation="2.0"/><feColorMatrix in="blurOut" result="blurOut2" type="matrix" values="0 0 0 0 0 0 0 0 0 0 0 0 0 0 0 0 0 0 .4 0"/><feOffset dx="4.0" dy="4.0" in="blurOut2" result="blurOut3"/><feBlend in="SourceGraphic" in2="blurOut3" mode="normal"/></filter></defs><g><!--cluster JexxaCore--><polygon fill="#FFFFFF" filter="url(#f1imkhayymdy08)" points="240,24,321,24,328,47.6094,569,47.6094,569,265,240,265,240,24" style="stroke: #000000; stroke-width: 1.5;"/><line style="stroke: #000000; stroke-width: 1.5;" x1="240" x2="328" y1="47.6094" y2="47.6094"/><text fill="#000000" font-family="sans-serif" font-size="14" font-weight="bold" lengthAdjust="spacingAndGlyphs" textLength="75" x="244" y="40.5332">JexxaCore</text><text fill="#000000" font-family="sans-serif" font-size="14" font-style="italic" lengthAdjust="spacingAndGlyphs" textLength="51" x="383" y="64.1426">«Jexxa»</text><!--cluster JexxaInfrastructure--><polygon fill="#FFFFFF" filter="url(#f1imkhayymdy08)" points="30,323,174,323,181,346.6094,277,346.6094,277,770,30,770,30,323" style="stroke: #000000; stroke-width: 1.5;"/><line style="stroke: #000000; stroke-width: 1.5;" x1="30" x2="181" y1="346.6094" y2="346.6094"/><text fill="#000000" font-family="sans-serif" font-size="14" font-weight="bold" lengthAdjust="spacingAndGlyphs" textLength="138" x="34" y="339.5332">JexxaInfrastructure</text><text fill="#000000" font-family="sans-serif" font-size="14" font-style="italic" lengthAdjust="spacingAndGlyphs" textLength="51" x="132" y="363.1426">«Jexxa»</text><!--cluster ApplicationCore--><polygon fill="#FFFFFF" filter="url(#f1imkhayymdy08)" points="558,323,676,323,683,346.6094,734,346.6094,734,636,558,636,558,323" style="stroke: #000000; stroke-width: 1.5;"/><line style="stroke: #000000; stroke-width: 1.5;" x1="558" x2="683" y1="346.6094" y2="346.6094"/><text fill="#000000" font-family="sans-serif" font-size="14" font-weight="bold" lengthAdjust="spacingAndGlyphs" textLength="112" x="562" y="339.5332">ApplicationCore</text><text fill="#000000" font-family="sans-serif" font-size="14" font-style="italic" lengthAdjust="spacingAndGlyphs" textLength="85" x="607.5" y="363.1426">«Application»</text><!--cluster Infrastructure--><polygon fill="#FFFFFF" filter="url(#f1imkhayymdy08)" points="317,495,420,495,427,518.6094,518,518.6094,518,770,317,770,317,495" style="stroke: #000000; stroke-width: 1.5;"/><line style="stroke: #000000; stroke-width: 1.5;" x1="317" x2="427" y1="518.6094" y2="518.6094"/><text fill="#000000" font-family="sans-serif" font-size="14" font-weight="bold" lengthAdjust="spacingAndGlyphs" textLength="97" x="321" y="511.5332">Infrastructure</text><text fill="#000000" font-family="sans-serif" font-size="14" font-style="italic" lengthAdjust="spacingAndGlyphs" textLength="85" x="379" y="535.1426">«Application»</text><!--entity Convention--><rect fill="#FEFECE" filter="url(#f1imkhayymdy08)" height="55.2188" style="stroke: #A80036; stroke-width: 1.5;" width="159" x="393.5" y="78"/><rect fill="#FEFECE" height="5" style="stroke: #A80036; stroke-width: 1.5;" width="10" x="388.5" y="83"/><rect fill="#FEFECE" height="5" style="stroke: #A80036; stroke-width: 1.5;" width="10" x="388.5" y="123.2188"/><text fill="#000000" font-family="sans-serif" font-size="14" font-style="italic" lengthAdjust="spacingAndGlyphs" textLength="139" x="403.5" y="102.5332">«Inversion of Control»</text><text fill="#000000" font-family="sans-serif" font-size="14" lengthAdjust="spacingAndGlyphs" textLength="72" x="437" y="120.1426">Convention</text><!--entity Core--><rect fill="#FEFECE" filter="url(#f1imkhayymdy08)" height="55.2188" style="stroke: #A80036; stroke-width: 1.5;" width="102" x="451" y="194"/><rect fill="#FEFECE" height="5" style="stroke: #A80036; stroke-width: 1.5;" width="10" x="446" y="199"/><rect fill="#FEFECE" height="5" style="stroke: #A80036; stroke-width: 1.5;" width="10" x="446" y="239.2188"/><text fill="#000000" font-family="sans-serif" font-size="14" font-style="italic" lengthAdjust="spacingAndGlyphs" textLength="82" x="461" y="218.5332">«Fluent API»</text><text fill="#000000" font-family="sans-serif" font-size="14" lengthAdjust="spacingAndGlyphs" textLength="31" x="486.5" y="236.1426">Core</text><!--entity Factory--><rect fill="#FEFECE" filter="url(#f1imkhayymdy08)" height="55.2188" style="stroke: #A80036; stroke-width: 1.5;" width="159" x="256.5" y="194"/><rect fill="#FEFECE" height="5" style="stroke: #A80036; stroke-width: 1.5;" width="10" x="251.5" y="199"/><rect fill="#FEFECE" height="5" style="stroke: #A80036; stroke-width: 1.5;" width="10" x="251.5" y="239.2188"/><text fill="#000000" font-family="sans-serif" font-size="14" font-style="italic" lengthAdjust="spacingAndGlyphs" textLength="139" x="266.5" y="218.5332">«Inversion of Control»</text><text fill="#000000" font-family="sans-serif" font-size="14" lengthAdjust="spacingAndGlyphs" textLength="48" x="312" y="236.1426">Factory</text><!--entity Generic Driving Adapters--><rect fill="#FEFECE" filter="url(#f1imkhayymdy08)" height="55.2188" style="stroke: #A80036; stroke-width: 1.5;" width="179" x="73.5" y="385"/><rect fill="#FEFECE" height="5" style="stroke: #A80036; stroke-width: 1.5;" width="10" x="68.5" y="390"/><rect fill="#FEFECE" height="5" style="stroke: #A80036; stroke-width: 1.5;" width="10" x="68.5" y="430.2188"/><text fill="#000000" font-family="sans-serif" font-size="14" font-style="italic" lengthAdjust="spacingAndGlyphs" textLength="113" x="106.5" y="409.5332">«Driving Adapter»</text><text fill="#000000" font-family="sans-serif" font-size="14" lengthAdjust="spacingAndGlyphs" textLength="159" x="83.5" y="427.1426">Generic Driving Adapters</text><!--entity Specific Driving Adapters--><rect fill="#FEFECE" filter="url(#f1imkhayymdy08)" height="55.2188" style="stroke: #A80036; stroke-width: 1.5;" width="178" x="74" y="557"/><rect fill="#FEFECE" height="5" style="stroke: #A80036; stroke-width: 1.5;" width="10" x="69" y="562"/><rect fill="#FEFECE" height="5" style="stroke: #A80036; stroke-width: 1.5;" width="10" x="69" y="602.2188"/><text fill="#000000" font-family="sans-serif" font-size="14" font-style="italic" lengthAdjust="spacingAndGlyphs" textLength="113" x="106.5" y="581.5332">«Driving Adapter»</text><text fill="#000000" font-family="sans-serif" font-size="14" lengthAdjust="spacingAndGlyphs" textLength="158" x="84" y="599.1426">Specific Driving Adapters</text><!--entity Driven Adapter Strategies--><rect fill="#FEFECE" filter="url(#f1imkhayymdy08)" height="55.2188" style="stroke: #A80036; stroke-width: 1.5;" width="187" x="65.5" y="691"/><rect fill="#FEFECE" height="5" style="stroke: #A80036; stroke-width: 1.5;" width="10" x="60.5" y="696"/><rect fill="#FEFECE" height="5" style="stroke: #A80036; stroke-width: 1.5;" width="10" x="60.5" y="736.2188"/><text fill="#000000" font-family="sans-serif" font-size="14" font-style="italic" lengthAdjust="spacingAndGlyphs" textLength="167" x="75.5" y="715.5332">«Driven Adapter Strategy»</text><text fill="#000000" font-family="sans-serif" font-size="14" lengthAdjust="spacingAndGlyphs" textLength="163" x="77.5" y="733.1426">Driven Adapter Strategies</text><!--entity Inbound Ports--><rect fill="#FEFECE" filter="url(#f1imkhayymdy08)" height="55.2188" style="stroke: #A80036; stroke-width: 1.5;" width="108" x="601" y="385"/><rect fill="#FEFECE" height="5" style="stroke: #A80036; stroke-width: 1.5;" width="10" x="596" y="390"/><rect fill="#FEFECE" height="5" style="stroke: #A80036; stroke-width: 1.5;" width="10" x="596" y="430.2188"/><text fill="#000000" font-family="sans-serif" font-size="14" font-style="italic" lengthAdjust="spacingAndGlyphs" textLength="42" x="634" y="409.5332">«Port»</text><text fill="#000000" font-family="sans-serif" font-size="14" lengthAdjust="spacingAndGlyphs" textLength="88" x="611" y="427.1426">Inbound Ports</text><!--entity Outbound Ports--><rect fill="#FEFECE" filter="url(#f1imkhayymdy08)" height="55.2188" style="stroke: #A80036; stroke-width: 1.5;" width="120" x="590" y="557"/><rect fill="#FEFECE" height="5" style="stroke: #A80036; stroke-width: 1.5;" width="10" x="585" y="562"/><rect fill="#FEFECE" height="5" style="stroke: #A80036; stroke-width: 1.5;" width="10" x="585" y="602.2188"/><text fill="#000000" font-family="sans-serif" font-size="14" font-style="italic" lengthAdjust="spacingAndGlyphs" textLength="42" x="629" y="581.5332">«Port»</text><text fill="#000000" font-family="sans-serif" font-size="14" lengthAdjust="spacingAndGlyphs" textLength="100" x="600" y="599.1426">Outbound Ports</text><!--entity Port Adapters--><rect fill="#FEFECE" filter="url(#f1imkhayymdy08)" height="55.2188" style="stroke: #A80036; stroke-width: 1.5;" width="133" x="360.5" y="557"/><rect fill="#FEFECE" height="5" style="stroke: #A80036; stroke-width: 1.5;" width="10" x="355.5" y="562"/><rect fill="#FEFECE" height="5" style="stroke: #A80036; stroke-width: 1.5;" width="10" x="355.5" y="602.2188"/><text fill="#000000" font-family="sans-serif" font-size="14" font-style="italic" lengthAdjust="spacingAndGlyphs" textLength="113" x="370.5" y="581.5332">«Driving Adapter»</text><text fill="#000000" font-family="sans-serif" font-size="14" lengthAdjust="spacingAndGlyphs" textLength="87" x="383.5" y="599.1426">Port Adapters</text><!--entity Driven Adapters--><rect fill="#FEFECE" filter="url(#f1imkhayymdy08)" height="55.2188" style="stroke: #A80036; stroke-width: 1.5;" width="130" x="362" y="691"/><rect fill="#FEFECE" height="5" style="stroke: #A80036; stroke-width: 1.5;" width="10" x="357" y="696"/><rect fill="#FEFECE" height="5" style="stroke: #A80036; stroke-width: 1.5;" width="10" x="357" y="736.2188"/><text fill="#000000" font-family="sans-serif" font-size="14" font-style="italic" lengthAdjust="spacingAndGlyphs" textLength="110" x="372" y="715.5332">«Driven Adapter»</text><text fill="#000000" font-family="sans-serif" font-size="14" lengthAdjust="spacingAndGlyphs" textLength="102" x="376" y="733.1426">Driven Adapters</text><!--link Specific Driving Adapters to Port Adapters--><path d="M196.2154,548.3522 C196.2154,548.3522 275.346,476.814 326.5,459.5 C370.601,444.573 399.966,502.468 415.032,544.428 " fill="none" id="Specific Driving Adapters-Port Adapters" style="stroke: #A80036; stroke-width: 1.0;"/><polygon fill="#A80036" points="419.248,556.84,420.1408,547.0317,417.6399,552.1057,412.5659,549.6047,419.248,556.84" style="stroke: #A80036; stroke-width: 1.0;"/><line style="stroke: #A80036; stroke-width: 1.0;" x1="417.6399" x2="415.0665" y1="552.1057" y2="544.5305"/><polygon fill="#FFFFFF" points="187.785,556.892,194.8468,555.4322,196.2154,548.3522,189.1536,549.812,187.785,556.892" style="stroke: #A80036; stroke-width: 1.0;"/><!--link Generic Driving Adapters to Inbound Ports--><path d="M193.3963,376.0368 C193.3963,376.0368 263.869,306.839 310.5,290 C366.724,269.697 524.108,267.525 579.5,290 C613.478,303.787 633.313,342.034 644.053,372.161 " fill="none" id="Generic Driving Adapters-Inbound Ports" style="stroke: #A80036; stroke-width: 1.0;"/><polygon fill="#A80036" points="648.239,384.897,649.2282,375.0979,646.6775,380.1471,641.6284,377.5964,648.239,384.897" style="stroke: #A80036; stroke-width: 1.0;"/><line style="stroke: #A80036; stroke-width: 1.0;" x1="646.6775" x2="644.1795" y1="380.1471" y2="372.547"/><polygon fill="#FFFFFF" points="185.365,384.953,192.3527,383.172,193.3963,376.0368,186.4086,377.8178,185.365,384.953" style="stroke: #A80036; stroke-width: 1.0;"/><!--link Port Adapters to Inbound Ports--><path d="M472.3697,549.6704 C472.3697,549.6704 569.431,477.302 608.872,447.894 " fill="none" id="Port Adapters-Inbound Ports" style="stroke: #A80036; stroke-width: 1.0;"/><polygon fill="#A80036" points="619.375,440.062,609.769,442.2356,615.3668,443.051,614.5514,448.6488,619.375,440.062" style="stroke: #A80036; stroke-width: 1.0;"/><line style="stroke: #A80036; stroke-width: 1.0;" x1="615.3668" x2="608.953" y1="443.051" y2="447.8335"/><polygon fill="#A80036" points="462.75,556.844,469.9511,556.4638,472.3697,549.6704,465.1687,550.0506,462.75,556.844" style="stroke: #A80036; stroke-width: 1.0;"/><!--link Inbound Ports to Outbound Ports--><path d="M653.8656,452.0568 C653.8656,452.0568 651.976,516.318 651.176,543.505 " fill="none" id="Inbound Ports-Outbound Ports" style="stroke: #A80036; stroke-width: 1.0;"/><polygon fill="#A80036" points="650.784,556.844,655.0463,547.9652,650.9307,551.8462,647.0498,547.7305,650.784,556.844" style="stroke: #A80036; stroke-width: 1.0;"/><line style="stroke: #A80036; stroke-width: 1.0;" x1="650.9307" x2="651.166" y1="551.8462" y2="543.8495"/><polygon fill="#FFFFFF" points="654.219,440.062,650.044,445.9416,653.8656,452.0568,658.0406,446.1772,654.219,440.062" style="stroke: #A80036; stroke-width: 1.0;"/><!--link Outbound Ports to Driven Adapters--><path d="M587.862,622.281 C550.994,644.104 505.106,671.267 471.787,690.989 " fill="none" id="Outbound Ports-Driven Adapters" style="stroke: #A80036; stroke-width: 1.0; stroke-dasharray: 7.0,7.0;"/><polygon fill="none" points="584.364,616.217,605.141,612.053,591.496,628.265,584.364,616.217" style="stroke: #A80036; stroke-width: 1.0;"/><!--link Driven Adapter Strategies to Driven Adapters--><path d="M252.695,718.5 C284.711,718.5 316.727,718.5 348.743,718.5 " fill="none" id="Driven Adapter Strategies-Driven Adapters" style="stroke: #A80036; stroke-width: 1.0;"/><polygon fill="#FFFFFF" points="361.976,718.5,355.976,714.5,349.976,718.5,355.976,722.5,361.976,718.5" style="stroke: #A80036; stroke-width: 1.0;"/><!--link Factory to Infrastructure--><path d="M335.191,249.045 C333.931,290.4035 331.413,373.039 329.1953,445.8183 C328.918,454.9157 328.6455,463.8591 328.3807,472.5486 C328.2483,476.8934 328.1179,481.1746 327.9897,485.38 C327.9256,487.4827 327.8621,489.5663 327.7993,491.6295 C327.7678,492.6611 327.7366,493.6875 327.7054,494.7086 " fill="none" id="Factory-Infrastructure" style="stroke: #A80036; stroke-width: 1.0; stroke-dasharray: 7.0,7.0;"/><polygon fill="#A80036" points="327.7054,494.7086,331.9777,485.8346,327.8577,489.7109,323.9814,485.5909,327.7054,494.7086" style="stroke: #A80036; stroke-width: 1.0;"/><text fill="#000000" font-family="sans-serif" font-size="13" lengthAdjust="spacingAndGlyphs" textLength="36" x="335" y="417.9951">create</text><!--link Factory to ApplicationCore--><path d="M368.466,249.178 C399.6705,274.82 448.0105,314.543 489.059,348.2743 C509.5833,365.1399 528.2846,380.5076 542.1098,391.8682 C545.566,394.7084 548.7175,397.2981 551.5166,399.5982 C552.9161,400.7482 554.2275,401.8259 555.4448,402.8262 C556.0535,403.3263 556.6386,403.8072 557.1995,404.2681 C557.3397,404.3833 557.4784,404.4973 557.6156,404.61 " fill="none" id="Factory-ApplicationCore" style="stroke: #A80036; stroke-width: 1.0; stroke-dasharray: 7.0,7.0;"/><polygon fill="#A80036" points="557.6156,404.61,553.2016,395.8056,553.7525,401.4356,548.1226,401.9865,557.6156,404.61" style="stroke: #A80036; stroke-width: 1.0;"/><text fill="#000000" font-family="sans-serif" font-size="13" lengthAdjust="spacingAndGlyphs" textLength="36" x="425" y="295.4951">create</text><!--link Factory to JexxaInfrastructure--><path d="M256.413,235.769 C181.059,250.049 75.5993,275.076 49,307 C45.3215,311.4148 42.3818,316.3253 40.0546,321.5427 C39.9092,321.8687 39.7661,322.196 39.6254,322.5245 " fill="none" id="Factory-JexxaInfrastructure" style="stroke: #A80036; stroke-width: 1.0; stroke-dasharray: 7.0,7.0;"/><polygon fill="#A80036" points="39.6254,322.5245,46.8461,315.8266,41.5942,317.9284,39.4924,312.6765,39.6254,322.5245" style="stroke: #A80036; stroke-width: 1.0;"/><text fill="#000000" font-family="sans-serif" font-size="13" lengthAdjust="spacingAndGlyphs" textLength="36" x="91" y="295.4951">create</text><!--link Generic Driving Adapters to Port Adapters--><!--link Generic Driving Adapters to Specific Driving Adapters--><!--link Specific Driving Adapters to Driven Adapter Strategies--><!--link Port Adapters to Driven Adapters--><!--link Factory to Core--><path d="M420.958,221.5 C430.904,221.5 440.849,221.5 450.794,221.5 " fill="none" id="Factory-Core" style="stroke: #A80036; stroke-width: 1.0;"/><polygon fill="#A80036" points="415.758,221.5,424.758,225.5,420.758,221.5,424.758,217.5,415.758,221.5" style="stroke: #A80036; stroke-width: 1.0;"/><!--link Convention to Core--><path d="M481.145,138.518 C485.592,156.001 491.034,177.392 495.243,193.94 " fill="none" id="Convention-Core" style="stroke: #A80036; stroke-width: 1.0;"/><polygon fill="#A80036" points="479.799,133.228,478.1416,142.9364,481.0318,138.0736,485.8946,140.9639,479.799,133.228" style="stroke: #A80036; stroke-width: 1.0;"/><!--
@startuml
skinparam PackagePadding 20

package JexxaCore <<Jexxa>> {
[Convention] <<Inversion of Control>>
[Core] <<Fluent API>>
[Factory] <<Inversion of Control>>
}

package JexxaInfrastructure <<Jexxa>> {
[Generic Driving Adapters]  <<Driving Adapter>>
[Specific Driving Adapters] <<Driving Adapter>>
[Driven Adapter Strategies] <<Driven Adapter Strategy>>
}

package ApplicationCore <<Application>> {
[Inbound Ports] <<Port>>
[Outbound Ports] <<Port>>
}

package Infrastructure <<Application>> {
[Port Adapters] <<Driving Adapter>>
[Driven Adapters] <<Driven Adapter>>
}

[Specific Driving Adapters] o-right-> [Port Adapters]
[Generic Driving Adapters] o-right-> [Inbound Ports]

[Port Adapters] *-right-> [Inbound Ports]
[Inbound Ports] o-down-> [Outbound Ports]
[Outbound Ports] <|.. [Driven Adapters]
[Driven Adapters] o-left-[Driven Adapter Strategies]

[Factory] ..> Infrastructure : create
[Factory] ..> ApplicationCore : create
[Factory] ..> JexxaInfrastructure : create

[Generic Driving Adapters] -[hidden]- [Port Adapters]
[Generic Driving Adapters] -[hidden]- [Specific Driving Adapters]
[Specific Driving Adapters] -[hidden]- [Driven Adapter Strategies]
[Port Adapters] -[hidden]- [Driven Adapters]

[Core] -left-> [Factory]
[Core] -up-> [Convention]

@enduml

PlantUML version 1.2019.06(Fri May 24 19:10:25 CEST 2019)
(APACHE source distribution)
Java Runtime: OpenJDK Runtime Environment
JVM: OpenJDK 64-Bit Server VM
Java Version: 11.0.6+8-b765.25
Operating System: Windows 10
OS Version: 10.0
Default Encoding: Cp1252
Language: de
Country: DE
--></g></svg>