<?xml version="1.0" encoding="UTF-8" standalone="no"?>
<svg xmlns="http://www.w3.org/2000/svg" contentScriptType="application/ecmascript" contentStyleType="text/css" height="973px"
     preserveAspectRatio="none" style="width:657px;height:973px;" version="1.1" viewBox="0 0 657 973" width="657px" zoomAndPan="magnify"><defs><filter height="300%" id="f1imkhayymdy08" width="300%" x="-1" y="-1"><feGaussianBlur result="blurOut" stdDeviation="2.0"/><feColorMatrix in="blurOut" result="blurOut2" type="matrix" values="0 0 0 0 0 0 0 0 0 0 0 0 0 0 0 0 0 0 .4 0"/><feOffset dx="4.0" dy="4.0" in="blurOut2" result="blurOut3"/><feBlend in="SourceGraphic" in2="blurOut3" mode="normal"/></filter></defs><g><!--MD5=[27dbc91fb06bec9b2cdcff3a7372372d]
cluster JexxaCore--><polygon fill="#FFFFFF" filter="url(#f1imkhayymdy08)" points="208,16,285,16,292,38.4883,534,38.4883,534,296,208,296,208,16" style="stroke: #000000; stroke-width: 1.5;"/><line style="stroke: #000000; stroke-width: 1.5;" x1="208" x2="292" y1="38.4883" y2="38.4883"/><text fill="#000000" font-family="sans-serif" font-size="14" font-weight="bold" lengthAdjust="spacingAndGlyphs" textLength="71" x="212" y="31.5352">JexxaCore</text><text fill="#000000" font-family="sans-serif" font-size="14" font-style="italic" lengthAdjust="spacingAndGlyphs" textLength="52" x="349" y="54.0234">«Jexxa»</text><!--MD5=[9e328fb08c043a4ba4afc93d75fc64d2]
cluster JexxaInfrastructure--><polygon fill="#FFFFFF" filter="url(#f1imkhayymdy08)" points="14,343,157,343,164,365.4883,257,365.4883,257,961,14,961,14,343" style="stroke: #000000; stroke-width: 1.5;"/><line style="stroke: #000000; stroke-width: 1.5;" x1="14" x2="164" y1="365.4883" y2="365.4883"/><text fill="#000000" font-family="sans-serif" font-size="14" font-weight="bold" lengthAdjust="spacingAndGlyphs" textLength="137" x="18" y="358.5352">JexxaInfrastructure</text><text fill="#000000" font-family="sans-serif" font-size="14" font-style="italic" lengthAdjust="spacingAndGlyphs" textLength="52" x="113.5" y="381.0234">«Jexxa»</text><!--MD5=[ec1fce25e01de22a32e4215f90fadd05]
cluster ApplicationCore--><polygon fill="#FFFFFF" filter="url(#f1imkhayymdy08)" points="466,494,587,494,594,516.4883,635,516.4883,635,847,466,847,466,494" style="stroke: #000000; stroke-width: 1.5;"/><line style="stroke: #000000; stroke-width: 1.5;" x1="466" x2="594" y1="516.4883" y2="516.4883"/><text fill="#000000" font-family="sans-serif" font-size="14" font-weight="bold" lengthAdjust="spacingAndGlyphs" textLength="115" x="470" y="509.5352">ApplicationCore</text><text fill="#000000" font-family="sans-serif" font-size="14" font-style="italic" lengthAdjust="spacingAndGlyphs" textLength="92" x="508.5" y="532.0234">«Application»</text><!--MD5=[9ddaf8ee8bcae11a9a9232f969198262]
cluster Infrastructure--><polygon fill="#FFFFFF" filter="url(#f1imkhayymdy08)" points="265,629,370,629,377,651.4883,458,651.4883,458,961,265,961,265,629" style="stroke: #000000; stroke-width: 1.5;"/><line style="stroke: #000000; stroke-width: 1.5;" x1="265" x2="377" y1="651.4883" y2="651.4883"/><text fill="#000000" font-family="sans-serif" font-size="14" font-weight="bold" lengthAdjust="spacingAndGlyphs" textLength="99" x="269" y="644.5352">Infrastructure</text><text fill="#000000" font-family="sans-serif" font-size="14" font-style="italic" lengthAdjust="spacingAndGlyphs" textLength="92" x="319.5" y="667.0234">«Application»</text><!--MD5=[1e9c2a5de484585d55f2941fb72cf3e9]
entity Convention--><rect fill="#FEFECE" filter="url(#f1imkhayymdy08)" height="52.9766" style="stroke: #A80036; stroke-width: 1.5;" width="171" x="354.5" y="59"/><rect fill="#FEFECE" height="5" style="stroke: #A80036; stroke-width: 1.5;" width="10" x="349.5" y="64"/><rect fill="#FEFECE" height="5" style="stroke: #A80036; stroke-width: 1.5;" width="10" x="349.5" y="101.9766"/><text fill="#000000" font-family="sans-serif" font-size="14" font-style="italic" lengthAdjust="spacingAndGlyphs" textLength="151" x="364.5" y="82.5352">«Inversion of Control»</text><text fill="#000000" font-family="sans-serif" font-size="14" lengthAdjust="spacingAndGlyphs" textLength="79" x="400.5" y="99.0234">Convention</text><!--MD5=[82f4cbc36554b3e8e13bf55fbb33759a]
entity Core--><rect fill="#FEFECE" filter="url(#f1imkhayymdy08)" height="52.9766" style="stroke: #A80036; stroke-width: 1.5;" width="103" x="422.5" y="235"/><rect fill="#FEFECE" height="5" style="stroke: #A80036; stroke-width: 1.5;" width="10" x="417.5" y="240"/><rect fill="#FEFECE" height="5" style="stroke: #A80036; stroke-width: 1.5;" width="10" x="417.5" y="277.9766"/><text fill="#000000" font-family="sans-serif" font-size="14" font-style="italic" lengthAdjust="spacingAndGlyphs" textLength="83" x="432.5" y="258.5352">«Fluent API»</text><text fill="#000000" font-family="sans-serif" font-size="14" lengthAdjust="spacingAndGlyphs" textLength="33" x="457.5" y="275.0234">Core</text><!--MD5=[331e5ab4100280e552d45eaf1040aa7a]
entity Factory--><rect fill="#FEFECE" filter="url(#f1imkhayymdy08)" height="52.9766" style="stroke: #A80036; stroke-width: 1.5;" width="171" x="216.5" y="235"/><rect fill="#FEFECE" height="5" style="stroke: #A80036; stroke-width: 1.5;" width="10" x="211.5" y="240"/><rect fill="#FEFECE" height="5" style="stroke: #A80036; stroke-width: 1.5;" width="10" x="211.5" y="277.9766"/><text fill="#000000" font-family="sans-serif" font-size="14" font-style="italic" lengthAdjust="spacingAndGlyphs" textLength="151" x="226.5" y="258.5352">«Inversion of Control»</text><text fill="#000000" font-family="sans-serif" font-size="14" lengthAdjust="spacingAndGlyphs" textLength="50" x="277" y="275.0234">Factory</text><!--MD5=[1ae3e209a520bf53f1be15a39e8259f4]
entity Generic Driving Adapters--><rect fill="#FEFECE" filter="url(#f1imkhayymdy08)" height="52.9766" style="stroke: #A80036; stroke-width: 1.5;" width="191" x="57.5" y="386"/><rect fill="#FEFECE" height="5" style="stroke: #A80036; stroke-width: 1.5;" width="10" x="52.5" y="391"/><rect fill="#FEFECE" height="5" style="stroke: #A80036; stroke-width: 1.5;" width="10" x="52.5" y="428.9766"/><text fill="#000000" font-family="sans-serif" font-size="14" font-style="italic" lengthAdjust="spacingAndGlyphs" textLength="122" x="92" y="409.5352">«Driving Adapter»</text><text fill="#000000" font-family="sans-serif" font-size="14" lengthAdjust="spacingAndGlyphs" textLength="171" x="67.5" y="426.0234">Generic Driving Adapters</text><!--MD5=[2e5bd9c808743d430f3bd96759689244]
entity Specific Driving Adapters--><rect fill="#FEFECE" filter="url(#f1imkhayymdy08)" height="52.9766" style="stroke: #A80036; stroke-width: 1.5;" width="191" x="46.5" y="672"/><rect fill="#FEFECE" height="5" style="stroke: #A80036; stroke-width: 1.5;" width="10" x="41.5" y="677"/><rect fill="#FEFECE" height="5" style="stroke: #A80036; stroke-width: 1.5;" width="10" x="41.5" y="714.9766"/><text fill="#000000" font-family="sans-serif" font-size="14" font-style="italic" lengthAdjust="spacingAndGlyphs" textLength="122" x="81" y="695.5352">«Driving Adapter»</text><text fill="#000000" font-family="sans-serif" font-size="14" lengthAdjust="spacingAndGlyphs" textLength="171" x="56.5" y="712.0234">Specific Driving Adapters</text><!--MD5=[c901f2eacb5ba8f9bff9280f9bcc3bc4]
entity Driven Adapter Strategies--><rect fill="#FEFECE" filter="url(#f1imkhayymdy08)" height="52.9766" style="stroke: #A80036; stroke-width: 1.5;" width="197" x="47.5" y="900"/><rect fill="#FEFECE" height="5" style="stroke: #A80036; stroke-width: 1.5;" width="10" x="42.5" y="905"/><rect fill="#FEFECE" height="5" style="stroke: #A80036; stroke-width: 1.5;" width="10" x="42.5" y="942.9766"/><text fill="#000000" font-family="sans-serif" font-size="14" font-style="italic" lengthAdjust="spacingAndGlyphs" textLength="177" x="57.5" y="923.5352">«Driven Adapter Strategy»</text><text fill="#000000" font-family="sans-serif" font-size="14" lengthAdjust="spacingAndGlyphs" textLength="175" x="58.5" y="940.0234">Driven Adapter Strategies</text><!--MD5=[f514452440e2440d2eadd523e3760338]
entity Inbound Ports--><rect fill="#FEFECE" filter="url(#f1imkhayymdy08)" height="52.9766" style="stroke: #A80036; stroke-width: 1.5;" width="117" x="474.5" y="537"/><rect fill="#FEFECE" height="5" style="stroke: #A80036; stroke-width: 1.5;" width="10" x="469.5" y="542"/><rect fill="#FEFECE" height="5" style="stroke: #A80036; stroke-width: 1.5;" width="10" x="469.5" y="579.9766"/><text fill="#000000" font-family="sans-serif" font-size="14" font-style="italic" lengthAdjust="spacingAndGlyphs" textLength="42" x="512" y="560.5352">«Port»</text><text fill="#000000" font-family="sans-serif" font-size="14" lengthAdjust="spacingAndGlyphs" textLength="97" x="484.5" y="577.0234">Inbound Ports</text><!--MD5=[c383cb16378a5fcc3837d9b932f56f86]
entity Outbound Ports--><rect fill="#FEFECE" filter="url(#f1imkhayymdy08)" height="52.9766" style="stroke: #A80036; stroke-width: 1.5;" width="129" x="474.5" y="786"/><rect fill="#FEFECE" height="5" style="stroke: #A80036; stroke-width: 1.5;" width="10" x="469.5" y="791"/><rect fill="#FEFECE" height="5" style="stroke: #A80036; stroke-width: 1.5;" width="10" x="469.5" y="828.9766"/><text fill="#000000" font-family="sans-serif" font-size="14" font-style="italic" lengthAdjust="spacingAndGlyphs" textLength="42" x="518" y="809.5352">«Port»</text><text fill="#000000" font-family="sans-serif" font-size="14" lengthAdjust="spacingAndGlyphs" textLength="109" x="484.5" y="826.0234">Outbound Ports</text><!--MD5=[6fca16109dd95aae0bdcd9628c5c40d9]
entity Port Adapters--><rect fill="#FEFECE" filter="url(#f1imkhayymdy08)" height="52.9766" style="stroke: #A80036; stroke-width: 1.5;" width="142" x="308" y="672"/><rect fill="#FEFECE" height="5" style="stroke: #A80036; stroke-width: 1.5;" width="10" x="303" y="677"/><rect fill="#FEFECE" height="5" style="stroke: #A80036; stroke-width: 1.5;" width="10" x="303" y="714.9766"/><text fill="#000000" font-family="sans-serif" font-size="14" font-style="italic" lengthAdjust="spacingAndGlyphs" textLength="122" x="318" y="695.5352">«Driving Adapter»</text><text fill="#000000" font-family="sans-serif" font-size="14" lengthAdjust="spacingAndGlyphs" textLength="94" x="332" y="712.0234">Port Adapters</text><!--MD5=[e67e5a7015219106a0ea0eca8b8977db]
entity Driven Adapters--><rect fill="#FEFECE" filter="url(#f1imkhayymdy08)" height="52.9766" style="stroke: #A80036; stroke-width: 1.5;" width="137" x="310.5" y="900"/><rect fill="#FEFECE" height="5" style="stroke: #A80036; stroke-width: 1.5;" width="10" x="305.5" y="905"/><rect fill="#FEFECE" height="5" style="stroke: #A80036; stroke-width: 1.5;" width="10" x="305.5" y="942.9766"/><text fill="#000000" font-family="sans-serif" font-size="14" font-style="italic" lengthAdjust="spacingAndGlyphs" textLength="117" x="320.5" y="923.5352">«Driven Adapter»</text><text fill="#000000" font-family="sans-serif" font-size="14" lengthAdjust="spacingAndGlyphs" textLength="110" x="324" y="940.0234">Driven Adapters</text><!--MD5=[a9fe2defad8b64e497671b402b6ba49b]
link Specific Driving Adapters to Port Adapters--><path d="M249.7138,698.5 C249.7138,698.5 280.3596,698.5 294.4516,698.5 " fill="none" id="Specific Driving Adapters-Port Adapters" style="stroke: #A80036; stroke-width: 1.0;"/><polygon fill="#A80036" points="307.719,698.5,298.719,694.5,302.719,698.5,298.719,702.5,307.719,698.5" style="stroke: #A80036; stroke-width: 1.0;"/><line style="stroke: #A80036; stroke-width: 1.0;" x1="302.719" x2="294.719" y1="698.5" y2="698.4999"/><polygon fill="#FFFFFF" points="237.7138,698.5,243.7138,702.5,249.7138,698.5,243.7138,694.5,237.7138,698.5" style="stroke: #A80036; stroke-width: 1.0;"/><!--MD5=[da05daa7d86f56dc89fcb814ac846341]
link Generic Driving Adapters to Inbound Ports--><path d="M197.5223,446.1357 C197.5223,446.1357 241.931,475.3886 265,486 C328.8543,515.3722 406.4322,536.3476 461.6567,549.0077 " fill="none" id="Generic Driving Adapters-Inbound Ports" style="stroke: #A80036; stroke-width: 1.0;"/><polygon fill="#A80036" points="474.489,551.8923,466.5854,546.0158,469.6107,550.7957,464.8308,553.8211,474.489,551.8923" style="stroke: #A80036; stroke-width: 1.0;"/><line style="stroke: #A80036; stroke-width: 1.0;" x1="469.6107" x2="461.8055" y1="550.7957" y2="549.0411"/><polygon fill="#FFFFFF" points="187.7252,439.2063,190.314,445.9367,197.5223,446.1357,194.9336,439.4053,187.7252,439.2063" style="stroke: #A80036; stroke-width: 1.0;"/><!--MD5=[225599f01cb692707984f4f3f60f7589]
link Port Adapters to Inbound Ports--><path d="M418.3719,663.8133 C418.3719,663.8133 445.4434,640.0063 458,629 C469.1477,619.2287 481.2422,608.6544 492.3985,598.9113 " fill="none" id="Port Adapters-Inbound Ports" style="stroke: #A80036; stroke-width: 1.0;"/><polygon fill="#A80036" points="502.3262,590.2442,492.9157,593.1499,498.5596,593.5325,498.177,599.1764,502.3262,590.2442" style="stroke: #A80036; stroke-width: 1.0;"/><line style="stroke: #A80036; stroke-width: 1.0;" x1="498.5596" x2="492.5331" y1="593.5325" y2="598.7938"/><polygon fill="#A80036" points="409.3641,671.7417,416.5108,670.7801,418.3719,663.8133,411.2252,664.7749,409.3641,671.7417" style="stroke: #A80036; stroke-width: 1.0;"/><!--MD5=[734d9806ea4168b1df84130c42238de0]
link Inbound Ports to Outbound Ports--><path d="M533.9313,602.1439 C533.9313,602.1439 536.9161,726.0166 538.0371,772.5379 " fill="none" id="Inbound Ports-Outbound Ports" style="stroke: #A80036; stroke-width: 1.0;"/><polygon fill="#A80036" points="538.3534,785.6679,542.1353,776.5741,538.2329,780.6694,534.1377,776.7669,538.3534,785.6679" style="stroke: #A80036; stroke-width: 1.0;"/><line style="stroke: #A80036; stroke-width: 1.0;" x1="538.2329" x2="538.0402" y1="780.6694" y2="772.6717"/><polygon fill="#FFFFFF" points="533.6421,590.1474,529.7879,596.2421,533.9313,602.1439,537.7855,596.0493,533.6421,590.1474" style="stroke: #A80036; stroke-width: 1.0;"/><!--MD5=[679851d4283185161b74d85cdefab975]
reverse link Outbound Ports to Driven Adapters--><path d="M484.9598,851.0036 C462.3773,867.0936 436.6996,885.3891 416.2779,899.9395 " fill="none" id="Outbound Ports&lt;-Driven Adapters" style="stroke: #A80036; stroke-width: 1.0; stroke-dasharray: 7.0,7.0;"/><polygon fill="none" points="481.1367,845.1325,501.4871,839.2279,489.2606,856.5344,481.1367,845.1325" style="stroke: #A80036; stroke-width: 1.0;"/><!--MD5=[43f79496c74f923abb91e4bad8497c8c]
link Driven Adapter Strategies to Driven Adapters--><path d="M244.752,926.5 C262.2492,926.5 279.7465,926.5 297.2438,926.5 " fill="none" id="Driven Adapter Strategies-&gt;Driven Adapters" style="stroke: #A80036; stroke-width: 1.0;"/><polygon fill="#FFFFFF" points="310.3028,926.5,304.3028,922.5,298.3028,926.5,304.3028,930.5,310.3028,926.5" style="stroke: #A80036; stroke-width: 1.0;"/><!--MD5=[198ed3cfb528567414b75e926b782eba]
link Factory to Infrastructure--><path d="M300.2296,288.1785 C297.1552,334.5062 290.5911,433.4203 284.6782,522.5215 C283.2,544.7968 281.7625,566.4588 280.4303,586.5324 C279.7643,596.5693 279.1246,606.2091 278.5193,615.3299 C278.2166,619.8903 277.9226,624.321 277.6382,628.6067 " fill="none" id="Factory-&gt;Infrastructure" style="stroke: #A80036; stroke-width: 1.0; stroke-dasharray: 7.0,7.0;"/><polygon fill="#A80036" points="277.6382,628.6067,282.2254,619.8913,277.9693,623.6177,274.2429,619.3616,277.6382,628.6067" style="stroke: #A80036; stroke-width: 1.0;"/><text fill="#000000" font-family="sans-serif" font-size="13" lengthAdjust="spacingAndGlyphs" textLength="38" x="289" y="482.5684">create</text><!--MD5=[808f1fccbdf85ed6cc8af9cdc143d1a8]
link Factory to ApplicationCore--><path d="M356.7525,288.1465 C391.463,306.4686 438.415,333.7683 484.7443,368.5692 C507.909,385.9697 530.918,405.2455 552.1632,426.2122 C562.7859,436.6955 572.9676,447.6015 582.5074,458.9072 C587.2773,464.56 591.8867,470.3127 596.3105,476.1625 C598.5224,479.0874 600.6879,482.0365 602.8039,485.0096 C603.8619,486.4961 604.9075,487.9886 605.9403,489.487 C606.4567,490.2362 606.9699,490.9869 607.4799,491.7391 C607.7349,492.1152 607.989,510.1115 608.2424,510.4883 " fill="none" id="Factory-&gt;ApplicationCore" style="stroke: #A80036; stroke-width: 1.0; stroke-dasharray: 7.0,7.0;"/><polygon fill="#A80036" points="608.2424,492.8684,606.5402,483.1678,605.4526,488.7191,599.9013,487.6315,608.2424,492.8684" style="stroke: #A80036; stroke-width: 1.0;"/><text fill="#000000" font-family="sans-serif" font-size="13" lengthAdjust="spacingAndGlyphs" textLength="38" x="562" y="417.5684">create</text><!--MD5=[a4361fae95fd28d0600dcd543617a828]
link Factory to JexxaInfrastructure--><path d="M216.4498,278.6956 C183.1203,286.2267 145.1491,295.8584 112.4397,306.8295 C96.085,312.3151 81.0457,318.1355 68.5598,324.1957 C62.3168,327.2257 56.7122,330.3157 51.9006,333.4537 C49.4949,335.0228 47.2874,336.6038 45.2975,338.1953 C44.3025,338.9911 43.362,339.7895 42.4783,340.5903 C42.0364,340.9907 41.6088,341.3918 41.1956,341.7934 C40.989,341.9942 40.7861,342.1952 40.5868,342.3963 C40.4872,342.4968 40.3884,342.5974 40.2906,342.698 " fill="none" id="Factory-&gt;JexxaInfrastructure" style="stroke: #A80036; stroke-width: 1.0; stroke-dasharray: 7.0,7.0;"/><polygon fill="#A80036" points="40.2906,342.698,49.4319,339.0323,43.7756,339.1126,43.6953,333.4564,40.2906,342.698" style="stroke: #A80036; stroke-width: 1.0;"/><text fill="#000000" font-family="sans-serif" font-size="13" lengthAdjust="spacingAndGlyphs" textLength="38" x="79" y="331.5684">create</text><!--MD5=[ee5c8ca330d417350d5e8ebc20504826]
link Generic Driving Adapters to Port Adapters--><!--MD5=[f59689c9658bc7bec7b8447fb9215ca0]
link Generic Driving Adapters to Specific Driving Adapters--><!--MD5=[df3df1ed4f524af704a92ec81f609c7b]
link Specific Driving Adapters to Driven Adapter Strategies--><!--MD5=[d0760558254531e484a37a78d6060750]
link Port Adapters to Driven Adapters--><!--MD5=[b2a291bbdb256f86e49e837947bb2467]
reverse link Factory to Core--><path d="M392.8203,261.5 C402.6805,261.5 412.5406,261.5 422.4008,261.5 " fill="none" id="Factory&lt;-Core" style="stroke: #A80036; stroke-width: 1.0;"/><polygon fill="#A80036" points="387.6641,261.5,396.6641,265.5,392.6641,261.5,396.6641,257.5,387.6641,261.5" style="stroke: #A80036; stroke-width: 1.0;"/><!--MD5=[2a0c092ac6d2e7e6dc0caabfd508915b]
reverse link Convention to Core--><path d="M446.1735,117.4572 C452.6649,151.0593 462.7629,203.3317 468.8433,234.8067 " fill="none" id="Convention&lt;-Core" style="stroke: #A80036; stroke-width: 1.0;"/><polygon fill="#A80036" points="445.1639,112.2306,442.9437,121.8259,446.1123,117.1398,450.7984,120.3085,445.1639,112.2306" style="stroke: #A80036; stroke-width: 1.0;"/><!--MD5=[02328ea18c7ab57a6ac8cd07c57c7d44]
@startuml
skinparam PackagePadding 20

package JexxaCore <<Jexxa>> {
[Convention] <<Inversion of Control>>
[Core] <<Fluent API>>
[Factory] <<Inversion of Control>>
}

package JexxaInfrastructure <<Jexxa>> {
[Generic Driving Adapters]  <<Driving Adapter>>
[Specific Driving Adapters] <<Driving Adapter>>
[Driven Adapter Strategies] <<Driven Adapter Strategy>>
}

package ApplicationCore <<Application>> {
[Inbound Ports] <<Port>>
[Outbound Ports] <<Port>>
}

package Infrastructure <<Application>> {
[Port Adapters] <<Driving Adapter>>
[Driven Adapters] <<Driven Adapter>>
}

[Specific Driving Adapters] o-right-> [Port Adapters]
[Generic Driving Adapters] o-right-> [Inbound Ports]

[Port Adapters] *-right-> [Inbound Ports]
[Inbound Ports] o-down-> [Outbound Ports]
[Outbound Ports] <|.. [Driven Adapters]
[Driven Adapters] o-left-[Driven Adapter Strategies]

[Factory] ..> Infrastructure : create
[Factory] ..> ApplicationCore : create
[Factory] ..> JexxaInfrastructure : create

[Generic Driving Adapters] -[hidden]- [Port Adapters]
[Generic Driving Adapters] -[hidden]- [Specific Driving Adapters]
[Specific Driving Adapters] -[hidden]- [Driven Adapter Strategies]
[Port Adapters] -[hidden]- [Driven Adapters]

[Core] -left-> [Factory]
[Core] -up-> [Convention]

@enduml

PlantUML version 1.2020.06(Sun Apr 05 14:38:32 CEST 2020)
(APACHE source distribution)
Java Runtime: OpenJDK Runtime Environment
JVM: OpenJDK 64-Bit Server VM
Java Version: 11.0.6+8-b765.40
Operating System: Mac OS X
Default Encoding: UTF-8
Language: de
Country: DE
--></g></svg>