<?xml version="1.0" encoding="UTF-8" standalone="no"?>
<svg xmlns="http://www.w3.org/2000/svg" contentScriptType="application/ecmascript" contentStyleType="text/css" height="797px"
     preserveAspectRatio="none" style="width:657px;height:797px;" version="1.1" viewBox="0 0 657 797" width="657px" zoomAndPan="magnify"><defs><filter height="300%" id="f1qohbbla4ri0l" width="300%" x="-1" y="-1"><feGaussianBlur result="blurOut" stdDeviation="2.0"/><feColorMatrix in="blurOut" result="blurOut2" type="matrix" values="0 0 0 0 0 0 0 0 0 0 0 0 0 0 0 0 0 0 .4 0"/><feOffset dx="4.0" dy="4.0" in="blurOut2" result="blurOut3"/><feBlend in="SourceGraphic" in2="blurOut3" mode="normal"/></filter></defs><g><!--MD5=[27dbc91fb06bec9b2cdcff3a7372372d]
cluster JexxaCore--><polygon fill="#FFFFFF" filter="url(#f1qohbbla4ri0l)" points="208,16,285,16,292,38.4883,522,38.4883,522,120,208,120,208,16" style="stroke: #000000; stroke-width: 1.5;"/><line style="stroke: #000000; stroke-width: 1.5;" x1="208" x2="292" y1="38.4883" y2="38.4883"/><text fill="#000000" font-family="sans-serif" font-size="14" font-weight="bold" lengthAdjust="spacingAndGlyphs" textLength="71" x="212" y="31.5352">JexxaCore</text><text fill="#000000" font-family="sans-serif" font-size="14" font-style="italic" lengthAdjust="spacingAndGlyphs" textLength="52" x="343" y="54.0234">«Jexxa»</text><!--MD5=[9e328fb08c043a4ba4afc93d75fc64d2]
cluster JexxaInfrastructure--><polygon fill="#FFFFFF" filter="url(#f1qohbbla4ri0l)" points="14,167,157,167,164,189.4883,257,189.4883,257,785,14,785,14,167" style="stroke: #000000; stroke-width: 1.5;"/><line style="stroke: #000000; stroke-width: 1.5;" x1="14" x2="164" y1="189.4883" y2="189.4883"/><text fill="#000000" font-family="sans-serif" font-size="14" font-weight="bold" lengthAdjust="spacingAndGlyphs" textLength="137" x="18" y="182.5352">JexxaInfrastructure</text><text fill="#000000" font-family="sans-serif" font-size="14" font-style="italic" lengthAdjust="spacingAndGlyphs" textLength="52" x="113.5" y="205.0234">«Jexxa»</text><!--MD5=[ec1fce25e01de22a32e4215f90fadd05]
cluster ApplicationCore--><polygon fill="#FFFFFF" filter="url(#f1qohbbla4ri0l)" points="466,318,587,318,594,340.4883,635,340.4883,635,671,466,671,466,318" style="stroke: #000000; stroke-width: 1.5;"/><line style="stroke: #000000; stroke-width: 1.5;" x1="466" x2="594" y1="340.4883" y2="340.4883"/><text fill="#000000" font-family="sans-serif" font-size="14" font-weight="bold" lengthAdjust="spacingAndGlyphs" textLength="115" x="470" y="333.5352">ApplicationCore</text><text fill="#000000" font-family="sans-serif" font-size="14" font-style="italic" lengthAdjust="spacingAndGlyphs" textLength="92" x="508.5" y="356.0234">«Application»</text><!--MD5=[9ddaf8ee8bcae11a9a9232f969198262]
cluster Infrastructure--><polygon fill="#FFFFFF" filter="url(#f1qohbbla4ri0l)" points="265,453,370,453,377,475.4883,458,475.4883,458,785,265,785,265,453" style="stroke: #000000; stroke-width: 1.5;"/><line style="stroke: #000000; stroke-width: 1.5;" x1="265" x2="377" y1="475.4883" y2="475.4883"/><text fill="#000000" font-family="sans-serif" font-size="14" font-weight="bold" lengthAdjust="spacingAndGlyphs" textLength="99" x="269" y="468.5352">Infrastructure</text><text fill="#000000" font-family="sans-serif" font-size="14" font-style="italic" lengthAdjust="spacingAndGlyphs" textLength="92" x="319.5" y="491.0234">«Application»</text><!--MD5=[b89b858822dae54080a05b5b030e4336]
entity JexxaMain--><rect fill="#FEFECE" filter="url(#f1qohbbla4ri0l)" height="52.9766" style="stroke: #A80036; stroke-width: 1.5;" width="91" x="422.5" y="59"/><rect fill="#FEFECE" height="5" style="stroke: #A80036; stroke-width: 1.5;" width="10" x="417.5" y="64"/><rect fill="#FEFECE" height="5" style="stroke: #A80036; stroke-width: 1.5;" width="10" x="417.5" y="101.9766"/><text fill="#000000" font-family="sans-serif" font-size="14" font-style="italic" lengthAdjust="spacingAndGlyphs" textLength="36" x="450" y="82.5352">«API»</text><text fill="#000000" font-family="sans-serif" font-size="14" lengthAdjust="spacingAndGlyphs" textLength="71" x="432.5" y="99.0234">JexxaMain</text><!--MD5=[eaa708d86caa9a0d478dd0713c3cbf23]
entity Dependency Injection--><rect fill="#FEFECE" filter="url(#f1qohbbla4ri0l)" height="52.9766" style="stroke: #A80036; stroke-width: 1.5;" width="171" x="216.5" y="59"/><rect fill="#FEFECE" height="5" style="stroke: #A80036; stroke-width: 1.5;" width="10" x="211.5" y="64"/><rect fill="#FEFECE" height="5" style="stroke: #A80036; stroke-width: 1.5;" width="10" x="211.5" y="101.9766"/><text fill="#000000" font-family="sans-serif" font-size="14" font-style="italic" lengthAdjust="spacingAndGlyphs" textLength="151" x="226.5" y="82.5352">«Inversion of Control»</text><text fill="#000000" font-family="sans-serif" font-size="14" lengthAdjust="spacingAndGlyphs" textLength="147" x="228.5" y="99.0234">Dependency Injection</text><!--MD5=[1ae3e209a520bf53f1be15a39e8259f4]
entity Generic Driving Adapters--><rect fill="#FEFECE" filter="url(#f1qohbbla4ri0l)" height="52.9766" style="stroke: #A80036; stroke-width: 1.5;" width="191" x="57.5" y="210"/><rect fill="#FEFECE" height="5" style="stroke: #A80036; stroke-width: 1.5;" width="10" x="52.5" y="215"/><rect fill="#FEFECE" height="5" style="stroke: #A80036; stroke-width: 1.5;" width="10" x="52.5" y="252.9766"/><text fill="#000000" font-family="sans-serif" font-size="14" font-style="italic" lengthAdjust="spacingAndGlyphs" textLength="122" x="92" y="233.5352">«Driving Adapter»</text><text fill="#000000" font-family="sans-serif" font-size="14" lengthAdjust="spacingAndGlyphs" textLength="171" x="67.5" y="250.0234">Generic Driving Adapters</text><!--MD5=[2e5bd9c808743d430f3bd96759689244]
entity Specific Driving Adapters--><rect fill="#FEFECE" filter="url(#f1qohbbla4ri0l)" height="52.9766" style="stroke: #A80036; stroke-width: 1.5;" width="191" x="46.5" y="496"/><rect fill="#FEFECE" height="5" style="stroke: #A80036; stroke-width: 1.5;" width="10" x="41.5" y="501"/><rect fill="#FEFECE" height="5" style="stroke: #A80036; stroke-width: 1.5;" width="10" x="41.5" y="538.9766"/><text fill="#000000" font-family="sans-serif" font-size="14" font-style="italic" lengthAdjust="spacingAndGlyphs" textLength="122" x="81" y="519.5352">«Driving Adapter»</text><text fill="#000000" font-family="sans-serif" font-size="14" lengthAdjust="spacingAndGlyphs" textLength="171" x="56.5" y="536.0234">Specific Driving Adapters</text><!--MD5=[c901f2eacb5ba8f9bff9280f9bcc3bc4]
entity Driven Adapter Strategies--><rect fill="#FEFECE" filter="url(#f1qohbbla4ri0l)" height="52.9766" style="stroke: #A80036; stroke-width: 1.5;" width="197" x="47.5" y="724"/><rect fill="#FEFECE" height="5" style="stroke: #A80036; stroke-width: 1.5;" width="10" x="42.5" y="729"/><rect fill="#FEFECE" height="5" style="stroke: #A80036; stroke-width: 1.5;" width="10" x="42.5" y="766.9766"/><text fill="#000000" font-family="sans-serif" font-size="14" font-style="italic" lengthAdjust="spacingAndGlyphs" textLength="177" x="57.5" y="747.5352">«Driven Adapter Strategy»</text><text fill="#000000" font-family="sans-serif" font-size="14" lengthAdjust="spacingAndGlyphs" textLength="175" x="58.5" y="764.0234">Driven Adapter Strategies</text><!--MD5=[f514452440e2440d2eadd523e3760338]
entity Inbound Ports--><rect fill="#FEFECE" filter="url(#f1qohbbla4ri0l)" height="52.9766" style="stroke: #A80036; stroke-width: 1.5;" width="117" x="474.5" y="361"/><rect fill="#FEFECE" height="5" style="stroke: #A80036; stroke-width: 1.5;" width="10" x="469.5" y="366"/><rect fill="#FEFECE" height="5" style="stroke: #A80036; stroke-width: 1.5;" width="10" x="469.5" y="403.9766"/><text fill="#000000" font-family="sans-serif" font-size="14" font-style="italic" lengthAdjust="spacingAndGlyphs" textLength="42" x="512" y="384.5352">«Port»</text><text fill="#000000" font-family="sans-serif" font-size="14" lengthAdjust="spacingAndGlyphs" textLength="97" x="484.5" y="401.0234">Inbound Ports</text><!--MD5=[c383cb16378a5fcc3837d9b932f56f86]
entity Outbound Ports--><rect fill="#FEFECE" filter="url(#f1qohbbla4ri0l)" height="52.9766" style="stroke: #A80036; stroke-width: 1.5;" width="129" x="474.5" y="610"/><rect fill="#FEFECE" height="5" style="stroke: #A80036; stroke-width: 1.5;" width="10" x="469.5" y="615"/><rect fill="#FEFECE" height="5" style="stroke: #A80036; stroke-width: 1.5;" width="10" x="469.5" y="652.9766"/><text fill="#000000" font-family="sans-serif" font-size="14" font-style="italic" lengthAdjust="spacingAndGlyphs" textLength="42" x="518" y="633.5352">«Port»</text><text fill="#000000" font-family="sans-serif" font-size="14" lengthAdjust="spacingAndGlyphs" textLength="109" x="484.5" y="650.0234">Outbound Ports</text><!--MD5=[6fca16109dd95aae0bdcd9628c5c40d9]
entity Port Adapters--><rect fill="#FEFECE" filter="url(#f1qohbbla4ri0l)" height="52.9766" style="stroke: #A80036; stroke-width: 1.5;" width="142" x="308" y="496"/><rect fill="#FEFECE" height="5" style="stroke: #A80036; stroke-width: 1.5;" width="10" x="303" y="501"/><rect fill="#FEFECE" height="5" style="stroke: #A80036; stroke-width: 1.5;" width="10" x="303" y="538.9766"/><text fill="#000000" font-family="sans-serif" font-size="14" font-style="italic" lengthAdjust="spacingAndGlyphs" textLength="122" x="318" y="519.5352">«Driving Adapter»</text><text fill="#000000" font-family="sans-serif" font-size="14" lengthAdjust="spacingAndGlyphs" textLength="94" x="332" y="536.0234">Port Adapters</text><!--MD5=[e67e5a7015219106a0ea0eca8b8977db]
entity Driven Adapters--><rect fill="#FEFECE" filter="url(#f1qohbbla4ri0l)" height="52.9766" style="stroke: #A80036; stroke-width: 1.5;" width="137" x="310.5" y="724"/><rect fill="#FEFECE" height="5" style="stroke: #A80036; stroke-width: 1.5;" width="10" x="305.5" y="729"/><rect fill="#FEFECE" height="5" style="stroke: #A80036; stroke-width: 1.5;" width="10" x="305.5" y="766.9766"/><text fill="#000000" font-family="sans-serif" font-size="14" font-style="italic" lengthAdjust="spacingAndGlyphs" textLength="117" x="320.5" y="747.5352">«Driven Adapter»</text><text fill="#000000" font-family="sans-serif" font-size="14" lengthAdjust="spacingAndGlyphs" textLength="110" x="324" y="764.0234">Driven Adapters</text><!--MD5=[a9fe2defad8b64e497671b402b6ba49b]
link Specific Driving Adapters to Port Adapters--><path d="M249.7138,522.5 C249.7138,522.5 280.3596,522.5 294.4516,522.5 " fill="none" id="Specific Driving Adapters-Port Adapters" style="stroke: #A80036; stroke-width: 1.0;"/><polygon fill="#A80036" points="307.719,522.5,298.719,518.5,302.719,522.5,298.719,526.5,307.719,522.5" style="stroke: #A80036; stroke-width: 1.0;"/><line style="stroke: #A80036; stroke-width: 1.0;" x1="302.719" x2="294.719" y1="522.5" y2="522.4999"/><polygon fill="#FFFFFF" points="237.7138,522.5,243.7138,526.5,249.7138,522.5,243.7138,518.5,237.7138,522.5" style="stroke: #A80036; stroke-width: 1.0;"/><!--MD5=[da05daa7d86f56dc89fcb814ac846341]
link Generic Driving Adapters to Inbound Ports--><path d="M197.5223,270.1357 C197.5223,270.1357 241.931,299.3886 265,310 C328.8543,339.3722 406.4322,360.3476 461.6567,373.0077 " fill="none" id="Generic Driving Adapters-Inbound Ports" style="stroke: #A80036; stroke-width: 1.0;"/><polygon fill="#A80036" points="474.489,375.8923,466.5854,370.0158,469.6107,374.7957,464.8308,377.8211,474.489,375.8923" style="stroke: #A80036; stroke-width: 1.0;"/><line style="stroke: #A80036; stroke-width: 1.0;" x1="469.6107" x2="461.8055" y1="374.7957" y2="373.0411"/><polygon fill="#FFFFFF" points="187.7252,263.2063,190.314,269.9367,197.5223,270.1357,194.9336,263.4053,187.7252,263.2063" style="stroke: #A80036; stroke-width: 1.0;"/><!--MD5=[225599f01cb692707984f4f3f60f7589]
link Port Adapters to Inbound Ports--><path d="M418.3719,487.8133 C418.3719,487.8133 445.4434,464.0063 458,453 C469.1477,443.2287 481.2422,432.6544 492.3985,422.9113 " fill="none" id="Port Adapters-Inbound Ports" style="stroke: #A80036; stroke-width: 1.0;"/><polygon fill="#A80036" points="502.3262,414.2442,492.9157,417.1499,498.5596,417.5325,498.177,423.1764,502.3262,414.2442" style="stroke: #A80036; stroke-width: 1.0;"/><line style="stroke: #A80036; stroke-width: 1.0;" x1="498.5596" x2="492.5331" y1="417.5325" y2="422.7938"/><polygon fill="#A80036" points="409.3641,495.7417,416.5108,494.7801,418.3719,487.8133,411.2252,488.7749,409.3641,495.7417" style="stroke: #A80036; stroke-width: 1.0;"/><!--MD5=[734d9806ea4168b1df84130c42238de0]
link Inbound Ports to Outbound Ports--><path d="M533.9313,426.1439 C533.9313,426.1439 536.9161,550.0166 538.0371,596.5379 " fill="none" id="Inbound Ports-Outbound Ports" style="stroke: #A80036; stroke-width: 1.0;"/><polygon fill="#A80036" points="538.3534,609.6679,542.1353,600.5741,538.2329,604.6694,534.1377,600.7669,538.3534,609.6679" style="stroke: #A80036; stroke-width: 1.0;"/><line style="stroke: #A80036; stroke-width: 1.0;" x1="538.2329" x2="538.0402" y1="604.6694" y2="596.6717"/><polygon fill="#FFFFFF" points="533.6421,414.1474,529.7879,420.2421,533.9313,426.1439,537.7855,420.0493,533.6421,414.1474" style="stroke: #A80036; stroke-width: 1.0;"/><!--MD5=[679851d4283185161b74d85cdefab975]
reverse link Outbound Ports to Driven Adapters--><path d="M484.9598,675.0036 C462.3773,691.0936 436.6996,709.3891 416.2779,723.9395 " fill="none" id="Outbound Ports&lt;-Driven Adapters" style="stroke: #A80036; stroke-width: 1.0; stroke-dasharray: 7.0,7.0;"/><polygon fill="none" points="481.1367,669.1325,501.4871,663.2279,489.2606,680.5344,481.1367,669.1325" style="stroke: #A80036; stroke-width: 1.0;"/><!--MD5=[43f79496c74f923abb91e4bad8497c8c]
link Driven Adapter Strategies to Driven Adapters--><path d="M244.752,750.5 C262.2492,750.5 279.7465,750.5 297.2438,750.5 " fill="none" id="Driven Adapter Strategies-&gt;Driven Adapters" style="stroke: #A80036; stroke-width: 1.0;"/><polygon fill="#FFFFFF" points="310.3028,750.5,304.3028,746.5,298.3028,750.5,304.3028,754.5,310.3028,750.5" style="stroke: #A80036; stroke-width: 1.0;"/><!--MD5=[2c794899a3634181af520621e4853990]
link Dependency Injection to Infrastructure--><path d="M300.2296,112.1785 C297.1552,158.5062 290.5911,257.4203 284.6782,346.5215 C283.2,368.7968 281.7625,390.4588 280.4303,410.5324 C279.7643,420.5693 279.1246,430.2091 278.5193,439.3299 C278.2166,443.8903 277.9226,448.321 277.6382,452.6067 " fill="none" id="Dependency Injection-&gt;Infrastructure" style="stroke: #A80036; stroke-width: 1.0; stroke-dasharray: 7.0,7.0;"/><polygon fill="#A80036" points="277.6382,452.6067,282.2254,443.8913,277.9693,447.6177,274.2429,443.3616,277.6382,452.6067" style="stroke: #A80036; stroke-width: 1.0;"/><text fill="#000000" font-family="sans-serif" font-size="13" lengthAdjust="spacingAndGlyphs" textLength="38" x="289" y="306.5684">create</text><!--MD5=[23dd5b6ec3984f4a83926d48eedf7fa8]
link Dependency Injection to ApplicationCore--><path d="M356.7525,112.1465 C391.463,130.4686 438.415,157.7683 484.7443,192.5692 C507.909,209.9697 530.918,229.2455 552.1632,250.2122 C562.7859,260.6955 572.9676,271.6015 582.5074,282.9072 C587.2773,288.56 591.8867,294.3127 596.3105,300.1625 C598.5224,303.0874 600.6879,306.0365 602.8039,309.0096 C603.8619,310.4961 604.9075,311.9886 605.9403,313.487 C606.4567,314.2362 606.9699,314.9869 607.4799,315.7391 C607.7349,316.1152 607.989,334.1115 608.2424,334.4883 " fill="none" id="Dependency Injection-&gt;ApplicationCore" style="stroke: #A80036; stroke-width: 1.0; stroke-dasharray: 7.0,7.0;"/><polygon fill="#A80036" points="608.2424,316.8684,606.5402,307.1678,605.4526,312.7191,599.9013,311.6315,608.2424,316.8684" style="stroke: #A80036; stroke-width: 1.0;"/><text fill="#000000" font-family="sans-serif" font-size="13" lengthAdjust="spacingAndGlyphs" textLength="38" x="562" y="241.5684">create</text><!--MD5=[9f71ceb610c7527e5f7514d2ed392534]
link Dependency Injection to JexxaInfrastructure--><path d="M216.4498,102.6956 C183.1203,110.2267 145.1491,119.8584 112.4397,130.8295 C96.085,136.3151 81.0457,142.1355 68.5598,148.1957 C62.3168,151.2257 56.7122,154.3157 51.9006,157.4537 C49.4949,159.0228 47.2874,160.6038 45.2975,162.1953 C44.3025,162.9911 43.362,163.7895 42.4783,164.5903 C42.0364,164.9907 41.6088,165.3918 41.1956,165.7934 C40.989,165.9942 40.7861,166.1952 40.5868,166.3963 C40.4872,166.4968 40.3884,166.5974 40.2906,166.698 " fill="none" id="Dependency Injection-&gt;JexxaInfrastructure" style="stroke: #A80036; stroke-width: 1.0; stroke-dasharray: 7.0,7.0;"/><polygon fill="#A80036" points="40.2906,166.698,49.4319,163.0323,43.7756,163.1126,43.6953,157.4564,40.2906,166.698" style="stroke: #A80036; stroke-width: 1.0;"/><text fill="#000000" font-family="sans-serif" font-size="13" lengthAdjust="spacingAndGlyphs" textLength="38" x="79" y="155.5684">create</text><!--MD5=[ee5c8ca330d417350d5e8ebc20504826]
link Generic Driving Adapters to Port Adapters--><!--MD5=[f59689c9658bc7bec7b8447fb9215ca0]
link Generic Driving Adapters to Specific Driving Adapters--><!--MD5=[df3df1ed4f524af704a92ec81f609c7b]
link Specific Driving Adapters to Driven Adapter Strategies--><!--MD5=[d0760558254531e484a37a78d6060750]
link Port Adapters to Driven Adapters--><!--MD5=[2ccd4b39f6713ea7cf1de868178b163d]
reverse link Dependency Injection to JexxaMain--><path d="M392.7688,85.5 C402.665,85.5 412.5612,85.5 422.4574,85.5 " fill="none" id="Dependency Injection&lt;-JexxaMain" style="stroke: #A80036; stroke-width: 1.0;"/><polygon fill="#A80036" points="387.5938,85.5,396.5938,89.5,392.5938,85.5,396.5938,81.5,387.5938,85.5" style="stroke: #A80036; stroke-width: 1.0;"/><!--MD5=[328d1ade04b5dcf1999c6d88967f5de0]
@startuml
skinparam PackagePadding 20

package JexxaCore <<Jexxa>> {
[JexxaMain] <<API>>
[Dependency Injection] <<Inversion of Control>>
}

package JexxaInfrastructure <<Jexxa>> {
[Generic Driving Adapters]  <<Driving Adapter>>
[Specific Driving Adapters] <<Driving Adapter>>
[Driven Adapter Strategies] <<Driven Adapter Strategy>>
}

package ApplicationCore <<Application>> {
[Inbound Ports] <<Port>>
[Outbound Ports] <<Port>>
}

package Infrastructure <<Application>> {
[Port Adapters] <<Driving Adapter>>
[Driven Adapters] <<Driven Adapter>>
}

[Specific Driving Adapters] o-right-> [Port Adapters]
[Generic Driving Adapters] o-right-> [Inbound Ports]

[Port Adapters] *-right-> [Inbound Ports]
[Inbound Ports] o-down-> [Outbound Ports]
[Outbound Ports] <|.. [Driven Adapters]
[Driven Adapters] o-left-[Driven Adapter Strategies]

[Dependency Injection] ..> Infrastructure : create
[Dependency Injection] ..> ApplicationCore : create
[Dependency Injection] ..> JexxaInfrastructure : create

[Generic Driving Adapters] -[hidden]- [Port Adapters]
[Generic Driving Adapters] -[hidden]- [Specific Driving Adapters]
[Specific Driving Adapters] -[hidden]- [Driven Adapter Strategies]
[Port Adapters] -[hidden]- [Driven Adapters]

[JexxaMain] -left-> [Dependency Injection]

@enduml

PlantUML version 1.2020.06(Sun Apr 05 14:38:32 CEST 2020)
(APACHE source distribution)
Java Runtime: OpenJDK Runtime Environment
JVM: OpenJDK 64-Bit Server VM
Java Version: 11.0.6+8-b765.40
Operating System: Mac OS X
Default Encoding: UTF-8
Language: de
Country: DE
--></g></svg>